<svg width="960" height="320" viewBox="0 0 960 320" fill="none" xmlns="http://www.w3.org/2000/svg">
  <rect width="960" height="320" fill="#FFFDF8"/>
  <text x="40" y="48" fill="#1F2933" font-family="Segoe UI, DejaVu Sans, sans-serif" font-size="28" font-weight="700">Dijkstrův algoritmus</text>
  <text x="40" y="78" fill="#5B6472" font-family="Segoe UI, DejaVu Sans, sans-serif" font-size="17">Hledáš nejkratší cestu od startu k cíli v ohodnoceném grafu.</text>

  <line x1="160" y1="170" x2="320" y2="110" stroke="#C8D2DC" stroke-width="6"/>
  <line x1="160" y1="170" x2="320" y2="220" stroke="#D1495B" stroke-width="8"/>
  <line x1="320" y1="110" x2="500" y2="90" stroke="#C8D2DC" stroke-width="6"/>
  <line x1="320" y1="220" x2="500" y2="160" stroke="#D1495B" stroke-width="8"/>
  <line x1="500" y1="90" x2="700" y2="120" stroke="#C8D2DC" stroke-width="6"/>
  <line x1="500" y1="160" x2="700" y2="120" stroke="#D1495B" stroke-width="8"/>
  <line x1="500" y1="160" x2="700" y2="240" stroke="#C8D2DC" stroke-width="6"/>
  <line x1="700" y1="120" x2="860" y2="170" stroke="#D1495B" stroke-width="8"/>
  <line x1="700" y1="240" x2="860" y2="170" stroke="#C8D2DC" stroke-width="6"/>

  <circle cx="140" cy="170" r="28" fill="#0F4C5C"/>
  <circle cx="320" cy="110" r="28" fill="#EFE8D8" stroke="#0F4C5C" stroke-width="3"/>
  <circle cx="320" cy="220" r="28" fill="#EFE8D8" stroke="#D1495B" stroke-width="4"/>
  <circle cx="500" cy="90" r="28" fill="#EFE8D8" stroke="#0F4C5C" stroke-width="3"/>
  <circle cx="500" cy="160" r="28" fill="#EFE8D8" stroke="#D1495B" stroke-width="4"/>
  <circle cx="700" cy="120" r="28" fill="#EFE8D8" stroke="#D1495B" stroke-width="4"/>
  <circle cx="700" cy="240" r="28" fill="#EFE8D8" stroke="#0F4C5C" stroke-width="3"/>
  <circle cx="840" cy="170" r="28" fill="#D1495B"/>

  <text x="126" y="178" fill="white" font-family="Segoe UI, DejaVu Sans, sans-serif" font-size="18" font-weight="700">S</text>
  <text x="311" y="118" fill="#1F2933" font-family="Segoe UI, DejaVu Sans, sans-serif" font-size="17">A</text>
  <text x="311" y="228" fill="#1F2933" font-family="Segoe UI, DejaVu Sans, sans-serif" font-size="17">B</text>
  <text x="491" y="98" fill="#1F2933" font-family="Segoe UI, DejaVu Sans, sans-serif" font-size="17">C</text>
  <text x="491" y="168" fill="#1F2933" font-family="Segoe UI, DejaVu Sans, sans-serif" font-size="17">D</text>
  <text x="691" y="128" fill="#1F2933" font-family="Segoe UI, DejaVu Sans, sans-serif" font-size="17">E</text>
  <text x="691" y="248" fill="#1F2933" font-family="Segoe UI, DejaVu Sans, sans-serif" font-size="17">F</text>
  <text x="826" y="178" fill="white" font-family="Segoe UI, DejaVu Sans, sans-serif" font-size="18" font-weight="700">C</text>

  <text x="225" y="205" fill="#D1495B" font-family="Segoe UI, DejaVu Sans, sans-serif" font-size="14" font-weight="700">2</text>
  <text x="410" y="202" fill="#D1495B" font-family="Segoe UI, DejaVu Sans, sans-serif" font-size="14" font-weight="700">3</text>
  <text x="600" y="150" fill="#D1495B" font-family="Segoe UI, DejaVu Sans, sans-serif" font-size="14" font-weight="700">2</text>
  <text x="775" y="150" fill="#D1495B" font-family="Segoe UI, DejaVu Sans, sans-serif" font-size="14" font-weight="700">1</text>

  <text x="40" y="282" fill="#5B6472" font-family="Segoe UI, DejaVu Sans, sans-serif" font-size="16">Zvýrazněná červená cesta je nejlevnější nalezená trasa.</text>
</svg>