<?xml version='1.0' encoding='UTF-8'?>
<svg width="74mm" height="74mm" version="1.1" viewBox="0 0 74 74" xmlns="http://www.w3.org/2000/svg"><path d="M4,4H6V6H4zM6,4H8V6H6zM8,4H10V6H8zM10,4H12V6H10zM12,4H14V6H12zM14,4H16V6H14zM16,4H18V6H16zM22,4H24V6H22zM26,4H28V6H26zM30,4H32V6H30zM38,4H40V6H38zM40,4H42V6H40zM42,4H44V6H42zM44,4H46V6H44zM46,4H48V6H46zM50,4H52V6H50zM56,4H58V6H56zM58,4H60V6H58zM60,4H62V6H60zM62,4H64V6H62zM64,4H66V6H64zM66,4H68V6H66zM68,4H70V6H68zM4,6H6V8H4zM16,6H18V8H16zM28,6H30V8H28zM30,6H32V8H30zM32,6H34V8H32zM34,6H36V8H34zM38,6H40V8H38zM44,6H46V8H44zM46,6H48V8H46zM48,6H50V8H48zM52,6H54V8H52zM56,6H58V8H56zM68,6H70V8H68zM4,8H6V10H4zM8,8H10V10H8zM10,8H12V10H10zM12,8H14V10H12zM16,8H18V10H16zM20,8H22V10H20zM26,8H28V10H26zM32,8H34V10H32zM40,8H42V10H40zM44,8H46V10H44zM46,8H48V10H46zM48,8H50V10H48zM52,8H54V10H52zM56,8H58V10H56zM60,8H62V10H60zM62,8H64V10H62zM64,8H66V10H64zM68,8H70V10H68zM4,10H6V12H4zM8,10H10V12H8zM10,10H12V12H10zM12,10H14V12H12zM16,10H18V12H16zM20,10H22V12H20zM24,10H26V12H24zM26,10H28V12H26zM34,10H36V12H34zM38,10H40V12H38zM48,10H50V12H48zM50,10H52V12H50zM52,10H54V12H52zM56,10H58V12H56zM60,10H62V12H60zM62,10H64V12H62zM64,10H66V12H64zM68,10H70V12H68zM4,12H6V14H4zM8,12H10V14H8zM10,12H12V14H10zM12,12H14V14H12zM16,12H18V14H16zM20,12H22V14H20zM22,12H24V14H22zM24,12H26V14H24zM26,12H28V14H26zM28,12H30V14H28zM30,12H32V14H30zM40,12H42V14H40zM42,12H44V14H42zM44,12H46V14H44zM46,12H48V14H46zM48,12H50V14H48zM50,12H52V14H50zM56,12H58V14H56zM60,12H62V14H60zM62,12H64V14H62zM64,12H66V14H64zM68,12H70V14H68zM4,14H6V16H4zM16,14H18V16H16zM20,14H22V16H20zM22,14H24V16H22zM30,14H32V16H30zM32,14H34V16H32zM34,14H36V16H34zM36,14H38V16H36zM38,14H40V16H38zM40,14H42V16H40zM44,14H46V16H44zM46,14H48V16H46zM48,14H50V16H48zM56,14H58V16H56zM68,14H70V16H68zM4,16H6V18H4zM6,16H8V18H6zM8,16H10V18H8zM10,16H12V18H10zM12,16H14V18H12zM14,16H16V18H14zM16,16H18V18H16zM20,16H22V18H20zM24,16H26V18H24zM28,16H30V18H28zM32,16H34V18H32zM36,16H38V18H36zM40,16H42V18H40zM44,16H46V18H44zM48,16H50V18H48zM52,16H54V18H52zM56,16H58V18H56zM58,16H60V18H58zM60,16H62V18H60zM62,16H64V18H62zM64,16H66V18H64zM66,16H68V18H66zM68,16H70V18H68zM20,18H22V20H20zM22,18H24V20H22zM24,18H26V20H24zM34,18H36V20H34zM40,18H42V20H40zM44,18H46V20H44zM46,18H48V20H46zM48,18H50V20H48zM50,18H52V20H50zM52,18H54V20H52zM4,20H6V22H4zM8,20H10V22H8zM10,20H12V22H10zM12,20H14V22H12zM14,20H16V22H14zM16,20H18V22H16zM22,20H24V22H22zM26,20H28V22H26zM30,20H32V22H30zM32,20H34V22H32zM38,20H40V22H38zM40,20H42V22H40zM44,20H46V22H44zM48,20H50V22H48zM52,20H54V22H52zM56,20H58V22H56zM58,20H60V22H58zM60,20H62V22H60zM62,20H64V22H62zM64,20H66V22H64zM6,22H8V24H6zM8,22H10V24H8zM10,22H12V24H10zM12,22H14V24H12zM20,22H22V24H20zM22,22H24V24H22zM26,22H28V24H26zM30,22H32V24H30zM36,22H38V24H36zM38,22H40V24H38zM40,22H42V24H40zM42,22H44V24H42zM44,22H46V24H44zM46,22H48V24H46zM48,22H50V24H48zM50,22H52V24H50zM56,22H58V24H56zM58,22H60V24H58zM62,22H64V24H62zM64,22H66V24H64zM66,22H68V24H66zM68,22H70V24H68zM6,24H8V26H6zM10,24H12V26H10zM16,24H18V26H16zM18,24H20V26H18zM22,24H24V26H22zM26,24H28V26H26zM28,24H30V26H28zM30,24H32V26H30zM32,24H34V26H32zM34,24H36V26H34zM36,24H38V26H36zM40,24H42V26H40zM52,24H54V26H52zM56,24H58V26H56zM60,24H62V26H60zM64,24H66V26H64zM66,24H68V26H66zM4,26H6V28H4zM6,26H8V28H6zM8,26H10V28H8zM10,26H12V28H10zM22,26H24V28H22zM26,26H28V28H26zM28,26H30V28H28zM30,26H32V28H30zM34,26H36V28H34zM36,26H38V28H36zM46,26H48V28H46zM48,26H50V28H48zM60,26H62V28H60zM62,26H64V28H62zM64,26H66V28H64zM66,26H68V28H66zM68,26H70V28H68zM4,28H6V30H4zM6,28H8V30H6zM14,28H16V30H14zM16,28H18V30H16zM22,28H24V30H22zM32,28H34V30H32zM34,28H36V30H34zM42,28H44V30H42zM54,28H56V30H54zM60,28H62V30H60zM62,28H64V30H62zM66,28H68V30H66zM68,28H70V30H68zM4,30H6V32H4zM10,30H12V32H10zM12,30H14V32H12zM14,30H16V32H14zM24,30H26V32H24zM26,30H28V32H26zM28,30H30V32H28zM30,30H32V32H30zM36,30H38V32H36zM38,30H40V32H38zM42,30H44V32H42zM44,30H46V32H44zM46,30H48V32H46zM50,30H52V32H50zM56,30H58V32H56zM64,30H66V32H64zM66,30H68V32H66zM68,30H70V32H68zM4,32H6V34H4zM6,32H8V34H6zM10,32H12V34H10zM16,32H18V34H16zM18,32H20V34H18zM20,32H22V34H20zM22,32H24V34H22zM30,32H32V34H30zM34,32H36V34H34zM36,32H38V34H36zM38,32H40V34H38zM44,32H46V34H44zM54,32H56V34H54zM56,32H58V34H56zM64,32H66V34H64zM66,32H68V34H66zM4,34H6V36H4zM8,34H10V36H8zM14,34H16V36H14zM18,34H20V36H18zM22,34H24V36H22zM24,34H26V36H24zM26,34H28V36H26zM34,34H36V36H34zM40,34H42V36H40zM42,34H44V36H42zM46,34H48V36H46zM52,34H54V36H52zM54,34H56V36H54zM56,34H58V36H56zM62,34H64V36H62zM64,34H66V36H64zM4,36H6V38H4zM6,36H8V38H6zM8,36H10V38H8zM10,36H12V38H10zM12,36H14V38H12zM16,36H18V38H16zM24,36H26V38H24zM26,36H28V38H26zM28,36H30V38H28zM34,36H36V38H34zM36,36H38V38H36zM38,36H40V38H38zM48,36H50V38H48zM50,36H52V38H50zM54,36H56V38H54zM58,36H60V38H58zM60,36H62V38H60zM62,36H64V38H62zM68,36H70V38H68zM12,38H14V40H12zM14,38H16V40H14zM18,38H20V40H18zM22,38H24V40H22zM24,38H26V40H24zM28,38H30V40H28zM30,38H32V40H30zM36,38H38V40H36zM38,38H40V40H38zM40,38H42V40H40zM42,38H44V40H42zM44,38H46V40H44zM50,38H52V40H50zM54,38H56V40H54zM56,38H58V40H56zM58,38H60V40H58zM62,38H64V40H62zM64,38H66V40H64zM68,38H70V40H68zM4,40H6V42H4zM6,40H8V42H6zM10,40H12V42H10zM12,40H14V42H12zM16,40H18V42H16zM18,40H20V42H18zM20,40H22V42H20zM26,40H28V42H26zM34,40H36V42H34zM38,40H40V42H38zM44,40H46V42H44zM48,40H50V42H48zM54,40H56V42H54zM58,40H60V42H58zM60,40H62V42H60zM64,40H66V42H64zM10,42H12V44H10zM12,42H14V44H12zM14,42H16V44H14zM20,42H22V44H20zM22,42H24V44H22zM24,42H26V44H24zM26,42H28V44H26zM28,42H30V44H28zM34,42H36V44H34zM44,42H46V44H44zM46,42H48V44H46zM48,42H50V44H48zM52,42H54V44H52zM54,42H56V44H54zM58,42H60V44H58zM60,42H62V44H60zM62,42H64V44H62zM64,42H66V44H64zM66,42H68V44H66zM68,42H70V44H68zM6,44H8V46H6zM14,44H16V46H14zM16,44H18V46H16zM20,44H22V46H20zM24,44H26V46H24zM26,44H28V46H26zM30,44H32V46H30zM32,44H34V46H32zM38,44H40V46H38zM40,44H42V46H40zM42,44H44V46H42zM48,44H50V46H48zM50,44H52V46H50zM52,44H54V46H52zM54,44H56V46H54zM58,44H60V46H58zM60,44H62V46H60zM62,44H64V46H62zM66,44H68V46H66zM68,44H70V46H68zM4,46H6V48H4zM6,46H8V48H6zM8,46H10V48H8zM12,46H14V48H12zM14,46H16V48H14zM18,46H20V48H18zM24,46H26V48H24zM28,46H30V48H28zM36,46H38V48H36zM42,46H44V48H42zM44,46H46V48H44zM50,46H52V48H50zM54,46H56V48H54zM56,46H58V48H56zM64,46H66V48H64zM68,46H70V48H68zM4,48H6V50H4zM8,48H10V50H8zM10,48H12V50H10zM16,48H18V50H16zM18,48H20V50H18zM22,48H24V50H22zM24,48H26V50H24zM34,48H36V50H34zM36,48H38V50H36zM38,48H40V50H38zM44,48H46V50H44zM46,48H48V50H46zM60,48H62V50H60zM66,48H68V50H66zM4,50H6V52H4zM8,50H10V52H8zM10,50H12V52H10zM12,50H14V52H12zM18,50H20V52H18zM24,50H26V52H24zM36,50H38V52H36zM46,50H48V52H46zM48,50H50V52H48zM50,50H52V52H50zM52,50H54V52H52zM54,50H56V52H54zM56,50H58V52H56zM60,50H62V52H60zM62,50H64V52H62zM64,50H66V52H64zM66,50H68V52H66zM4,52H6V54H4zM8,52H10V54H8zM16,52H18V54H16zM28,52H30V54H28zM30,52H32V54H30zM38,52H40V54H38zM42,52H44V54H42zM48,52H50V54H48zM52,52H54V54H52zM54,52H56V54H54zM56,52H58V54H56zM58,52H60V54H58zM60,52H62V54H60zM66,52H68V54H66zM68,52H70V54H68zM20,54H22V56H20zM22,54H24V56H22zM24,54H26V56H24zM26,54H28V56H26zM36,54H38V56H36zM40,54H42V56H40zM42,54H44V56H42zM46,54H48V56H46zM50,54H52V56H50zM52,54H54V56H52zM60,54H62V56H60zM64,54H66V56H64zM68,54H70V56H68zM4,56H6V58H4zM6,56H8V58H6zM8,56H10V58H8zM10,56H12V58H10zM12,56H14V58H12zM14,56H16V58H14zM16,56H18V58H16zM22,56H24V58H22zM26,56H28V58H26zM30,56H32V58H30zM32,56H34V58H32zM34,56H36V58H34zM40,56H42V58H40zM44,56H46V58H44zM50,56H52V58H50zM52,56H54V58H52zM56,56H58V58H56zM60,56H62V58H60zM64,56H66V58H64zM66,56H68V58H66zM4,58H6V60H4zM16,58H18V60H16zM20,58H22V60H20zM26,58H28V60H26zM28,58H30V60H28zM30,58H32V60H30zM32,58H34V60H32zM34,58H36V60H34zM36,58H38V60H36zM42,58H44V60H42zM46,58H48V60H46zM48,58H50V60H48zM50,58H52V60H50zM52,58H54V60H52zM60,58H62V60H60zM62,58H64V60H62zM64,58H66V60H64zM66,58H68V60H66zM4,60H6V62H4zM8,60H10V62H8zM10,60H12V62H10zM12,60H14V62H12zM16,60H18V62H16zM20,60H22V62H20zM28,60H30V62H28zM34,60H36V62H34zM36,60H38V62H36zM38,60H40V62H38zM40,60H42V62H40zM48,60H50V62H48zM52,60H54V62H52zM54,60H56V62H54zM56,60H58V62H56zM58,60H60V62H58zM60,60H62V62H60zM62,60H64V62H62zM68,60H70V62H68zM4,62H6V64H4zM8,62H10V64H8zM10,62H12V64H10zM12,62H14V64H12zM16,62H18V64H16zM20,62H22V64H20zM28,62H30V64H28zM34,62H36V64H34zM36,62H38V64H36zM38,62H40V64H38zM42,62H44V64H42zM44,62H46V64H44zM48,62H50V64H48zM52,62H54V64H52zM54,62H56V64H54zM60,62H62V64H60zM62,62H64V64H62zM64,62H66V64H64zM66,62H68V64H66zM68,62H70V64H68zM4,64H6V66H4zM8,64H10V66H8zM10,64H12V66H10zM12,64H14V66H12zM16,64H18V66H16zM20,64H22V66H20zM24,64H26V66H24zM26,64H28V66H26zM34,64H36V66H34zM36,64H38V66H36zM40,64H42V66H40zM48,64H50V66H48zM50,64H52V66H50zM56,64H58V66H56zM58,64H60V66H58zM62,64H64V66H62zM4,66H6V68H4zM16,66H18V68H16zM22,66H24V68H22zM26,66H28V68H26zM28,66H30V68H28zM30,66H32V68H30zM32,66H34V68H32zM42,66H44V68H42zM44,66H46V68H44zM46,66H48V68H46zM60,66H62V68H60zM62,66H64V68H62zM64,66H66V68H64zM4,68H6V70H4zM6,68H8V70H6zM8,68H10V70H8zM10,68H12V70H10zM12,68H14V70H12zM14,68H16V70H14zM16,68H18V70H16zM20,68H22V70H20zM24,68H26V70H24zM28,68H30V70H28zM32,68H34V70H32zM34,68H36V70H34zM36,68H38V70H36zM38,68H40V70H38zM44,68H46V70H44zM48,68H50V70H48zM50,68H52V70H50zM52,68H54V70H52zM56,68H58V70H56zM58,68H60V70H58zM62,68H64V70H62zM64,68H66V70H64zM66,68H68V70H66z" id="qr-path" fill="#000000" fill-opacity="1" fill-rule="nonzero" stroke="none"/></svg>